<?xml version="1.0" encoding="UTF-8"?>
<svg width="1200" height="800" viewBox="0 0 1200 800" version="1.1" xmlns="http://www.w3.org/2000/svg">
    <title>World Map (Dark)</title>
    <g stroke="#3B82F6" stroke-width="0.5" fill="none" fill-rule="evenodd">
        <!-- North America -->
        <path d="M170,132 C170,132 176,127 183,126 C190,125 195,122 204,122 C213,122 215,119 225,117 C235,115 240,117 250,114 C260,111 264,109 275,109 C286,109 294,112 305,112 C316,112 321,114 332,116 C343,118 349,120 362,120 C375,120 382,118 392,117 C402,116 408,114 418,113 C428,112 433,110 445,110 C457,110 466,112 476,112 C486,112 499,109 504,113 C510,117 512,125 516,131 C520,137 525,143 528,149 C531,155 533,163 536,169 C539,175 541,180 544,186 C547,192 553,196 554,202 C555,208 552,216 555,222 C558,228 565,231 566,237 C567,243 560,240 546,247 C532,254 529,258 517,267 C505,276 496,282 484,289 C472,296 465,300 453,307 C441,314 434,318 422,325 C410,332 403,336 391,343 C379,350 371,355 359,361 C347,367 340,370 328,375 C316,380 308,383 296,388 C284,393 278,406 266,406 C254,406 245,397 234,392 C223,387 217,384 206,379 C195,374 190,369 179,365 C168,361 162,362 152,355 C142,348 138,341 129,332 C120,323 115,318 107,309 C99,300 94,294 88,285 C82,276 77,270 78,259 C79,248 91,243 97,233 C103,223 101,218 110,209 C119,200 126,195 135,185 C144,175 149,173 158,162 C167,151 170,144 170,132 Z"/>

        <!-- South America -->
        <path d="M383,446 C383,446 385,445 391,448 C397,451 400,453 406,456 C412,459 415,461 421,464 C427,467 431,469 437,472 C443,475 446,477 452,480 C458,483 464,484 466,490 C468,496 464,501 462,507 C460,513 459,517 457,523 C455,529 454,533 452,539 C450,545 449,554 443,554 C437,554 433,548 428,546 C423,544 419,544 416,540 C413,536 415,532 409,530 C403,528 397,526 392,523 C387,520 385,517 381,513 C377,509 375,507 372,503 C369,499 367,496 365,492 C363,488 362,485 360,481 C358,477 357,474 355,470 C353,466 352,464 350,460 C348,456 347,440 350,438 C353,436 356,437 359,435 C362,433 363,432 366,430 C369,428 375,452 378,450 C381,448 381,447 383,446 Z"/>

        <!-- Europe -->
        <path d="M598,140 C598,140 600,141 604,143 C608,145 608,147 613,148 C618,149 621,149 626,150 C631,151 633,151 638,152 C643,153 645,154 650,155 C655,156 658,156 663,157 C668,158 678,155 678,160 C678,165 671,169 668,173 C665,177 664,179 661,183 C658,187 657,189 654,193 C651,197 649,202 644,202 C639,202 635,198 631,196 C627,194 624,193 621,190 C618,187 617,185 614,182 C611,179 609,178 606,175 C603,172 602,170 599,167 C596,164 594,162 591,159 C588,156 584,147 587,145 C590,143 594,143 598,140 Z"/>

        <!-- Asia -->
        <path d="M743,140 C743,140 745,141 749,143 C753,145 755,146 759,148 C763,150 764,153 769,154 C774,155 777,154 782,155 C787,156 790,157 795,158 C800,159 802,159 807,160 C812,161 816,161 820,163 C824,165 826,166 830,168 C834,170 836,172 840,174 C844,176 848,177 850,180 C852,183 849,186 850,189 C851,192 853,194 854,197 C855,200 856,202 857,205 C858,208 858,210 859,213 C860,216 861,219 860,222 C859,225 856,226 855,229 C854,232 854,234 853,237 C852,240 851,241 850,244 C849,247 850,249 847,251 C844,253 840,251 837,253 C834,255 833,258 829,258 C825,258 822,255 818,255 C814,255 812,256 808,256 C804,256 802,255 798,255 C794,255 792,256 788,256 C784,256 782,256 778,256 C774,256 772,254 768,254 C764,254 758,252 758,248 C758,244 764,242 768,240 C772,238 774,237 778,235 C782,233 784,232 788,230 C792,228 796,227 797,224 C798,221 795,219 795,216 C795,213 795,211 795,208 C795,205 796,203 796,200 C796,197 795,195 795,192 C795,189 795,187 795,184 C795,181 796,179 795,176 C794,173 792,172 790,169 C788,166 786,165 784,162 C782,159 781,157 779,154 C777,151 771,142 773,140 C775,138 779,138 783,137 C787,136 789,136 793,135 C797,134 799,134 803,133 C807,132 811,131 815,131 C819,131 823,131 827,132 C831,133 835,134 832,135 C829,136 822,135 817,137 C812,139 812,141 806,142 C800,143 797,144 792,144 C787,144 782,143 780,139 C778,135 782,130 783,127 C784,124 784,122 785,119 C786,116 786,116 788,113 C790,110 792,108 794,105 C796,102 798,100 800,97 C802,94 799,82 802,80 C805,78 810,80 814,79 C818,78 820,78 824,77 C828,76 830,75 834,75 C838,75 841,76 845,75 C849,74 851,74 855,73 C859,72 865,71 867,69 C869,67 868,63 869,61 C870,59 870,57 871,55 C872,53 872,52 873,50 C874,48 875,43 877,46 C879,49 878,54 880,57 C882,60 884,61 885,64 C886,67 885,70 887,73 C889,76 891,77 893,80 C895,83 896,88 893,90 C890,92 885,90 882,91 C879,92 877,93 875,95 C873,97 873,99 871,101 C869,103 867,104 865,106 C863,108 862,110 860,112 C858,114 856,115 854,117 C852,119 850,119 849,122 C848,125 849,128 848,131 C847,134 845,136 845,139 C845,142 846,146 849,147 C852,148 854,145 858,145 C862,145 864,145 868,145 C872,145 874,146 878,146 C882,146 885,146 888,148 C891,150 891,153 894,155 C897,157 899,158 901,161 C903,164 904,164 904,167 C904,170 903,172 904,175 C905,178 908,179 910,182 C912,185 913,185 915,188 C917,191 918,192 920,195 C922,198 923,200 925,203 C927,206 929,210 928,213 C927,216 923,216 921,219 C919,222 919,224 917,227 C915,230 914,231 912,234 C910,237 908,240 905,241 C902,242 899,240 896,241 C893,242 892,243 889,244 C886,245 882,248 879,246 C876,244 876,240 874,237 C872,234 871,232 869,229 C867,226 866,224 864,221 C862,218 859,211 861,209 C863,207 867,208 870,206 C873,204 874,202 877,200 C880,198 882,197 885,195 C888,193 890,189 894,189 C898,189 900,192 904,192 C908,192 909,192 913,191 C917,190 919,189 923,188 C927,187 932,187 934,189 C936,191 935,195 935,198 C935,201 935,203 935,206 C935,209 935,211 935,214 C935,217 935,219 935,222 C935,225 935,227 935,230 C935,233 935,235 935,238 C935,241 935,242 935,245 C935,248 935,252 935,253 C935,254 934,255 933,258 C932,261 931,264 928,265 C925,266 923,264 920,264 C917,264 915,263 912,264 C909,265 908,266 905,267 C902,268 900,269 897,270 C894,271 892,271 889,272 C886,273 883,274 880,274 C877,274 875,271 872,272 C869,273 868,275 865,276 C862,277 860,277 857,279 C854,281 852,282 849,284 C846,286 845,290 840,290 C835,290 832,286 829,283 C826,280 825,279 823,275 C821,271 820,269 819,265 C818,261 822,259 823,255 C824,251 822,248 825,245 C828,242 833,243 836,240 C839,237 841,234 843,231 C845,228 845,226 847,223 C849,220 850,218 852,215 C854,212 859,210 859,206 C859,202 854,200 851,197 C848,194 847,192 844,189 C841,186 839,184 836,181 C833,178 830,176 827,173 C824,170 822,168 819,165 C816,162 815,160 812,157 C809,154 807,154 804,151 C801,148 798,140 801,138 C804,136 809,138 813,137 C817,136 819,136 823,135 C827,134 833,130 831,126 C829,122 822,123 818,121 C814,119 813,118 809,116 C805,114 801,113 798,110 C795,107 796,104 794,101 C792,98 790,96 789,92 C788,88 788,86 789,82 C790,78 792,78 793,74 C794,70 794,66 793,62 C792,58 790,56 788,52 C786,48 782,43 783,39 C784,35 790,36 794,34 C798,32 800,31 804,30 C808,29 813,27 815,30 C817,33 815,39 815,43 C815,47 815,49 814,53 C813,57 812,60 811,64 C810,68 809,70 807,74 C805,78 801,84 803,88 C805,92 809,92 813,94 C817,96 824,96 822,100 C820,104 813,104 809,106 C805,108 803,109 799,111 C795,113 792,114 788,116 C784,118 778,121 778,125 C778,129 785,131 788,134 C791,137 792,140 795,142 C798,144 800,144 803,147 C806,150 807,151 810,154 C813,157 815,159 818,162 C821,165 823,167 826,170 C829,173 835,177 832,179 C829,181 824,178 820,179 C816,180 815,181 811,182 C807,183 804,183 800,184 C796,185 787,184 791,182 C795,180 806,180 808,177 C810,174 804,171 804,168 C804,165 810,166 812,163 C814,160 811,159 811,155 C811,151 813,150 813,146 C813,142 811,133 807,133 C803,133 800,138 796,139 C792,140 792,137 788,139 C784,141 782,143 778,145 C774,147 772,148 768,150 C764,152 760,155 756,154 C752,153 750,149 747,147 C744,145 743,143 743,140 Z"/>

        <!-- Africa -->
        <path d="M594,281 C594,281 596,282 600,284 C604,286 606,287 610,289 C614,291 615,294 620,295 C625,296 628,295 633,296 C638,297 641,298 646,299 C651,300 653,300 658,301 C663,302 667,302 671,304 C675,306 677,307 681,309 C685,311 687,313 691,315 C695,317 699,318 701,321 C703,324 700,327 701,330 C702,333 704,335 705,338 C706,341 707,343 708,346 C709,349 709,351 710,354 C711,357 712,359 713,363 C714,367 715,369 716,373 C717,377 716,384 714,386 C712,388 708,387 705,388 C702,389 697,385 698,389 C699,393 706,395 708,398 C710,401 710,403 712,406 C714,409 715,411 717,414 C719,417 721,421 720,425 C719,429 715,430 712,433 C709,436 708,438 705,441 C702,444 700,446 697,449 C694,452 690,456 687,456 C684,456 682,451 679,451 C676,451 674,451 671,451 C668,451 665,453 665,449 C665,445 670,443 672,440 C674,437 674,435 676,432 C678,429 680,428 681,425 C682,422 678,417 679,414 C680,411 683,410 685,407 C687,404 687,401 689,398 C691,395 693,394 695,391 C697,388 697,386 699,383 C701,380 702,378 704,375 C706,372 707,370 709,367 C711,364 713,362 714,359 C715,356 715,353 716,350 C717,347 716,341 719,339 C722,337 726,337 728,334 C730,331 729,329 731,325 C733,321 734,319 735,315 C736,311 736,309 737,305 C738,301 738,299 739,295 C740,291 741,289 741,285 C741,281 741,273 738,271 C735,269 730,271 727,269 C724,267 723,265 720,263 C717,261 710,259 713,256 C716,253 723,254 726,251 C729,248 729,244 732,241 C735,238 737,233 741,233 C745,233 748,238 751,241 C754,244 755,246 758,249 C761,252 763,254 766,257 C769,260 771,262 774,265 C777,268 779,270 782,273 C785,276 787,277 789,281 C791,285 791,288 793,292 C795,296 797,298 798,302 C799,306 799,309 800,313 C801,317 801,319 802,323 C803,327 803,329 803,333 C803,337 802,341 802,345 C802,349 803,351 802,355 C801,359 799,362 799,366 C799,370 801,373 799,376 C797,379 793,377 790,380 C787,383 787,387 784,390 C781,393 779,394 776,397 C773,400 768,404 766,408 C764,412 766,416 764,420 C762,424 758,425 756,429 C754,433 754,436 752,440 C750,444 748,446 746,450 C744,454 743,456 741,460 C739,464 738,466 736,470 C734,474 733,477 731,481 C729,485 727,487 725,491 C723,495 718,504 716,501 C714,498 718,492 718,488 C718,484 715,482 715,478 C715,474 716,472 716,468 C716,464 715,462 715,458 C715,454 716,449 716,445 C716,441 716,443 716,439 C716,435 715,433 715,429 C715,425 716,423 716,419 C716,415 715,408 718,406 C721,404 725,405 728,403 C731,401 732,399 735,397 C738,395 744,396 744,392 C744,388 737,387 735,384 C733,381 737,371 734,378 C731,385 724,387 721,394 C718,401 719,406 716,413 C713,420 710,423 705,429 C700,435 698,439 692,444 C686,449 672,440 670,447 C668,454 678,457 679,464 C680,471 675,475 676,482 C677,489 681,492 682,499 C683,506 683,510 683,517 C683,524 682,528 682,535 C682,542 669,546 676,551 C683,556 695,555 701,561 C707,567 706,572 711,579 C716,586 719,589 724,596 C729,603 732,606 736,613 C740,620 735,627 737,633 C739,639 741,640 741,646 C741,652 741,656 745,656 C749,656 751,650 755,650 C759,650 763,652 765,648 C767,644 761,642 759,636 C757,630 757,628 753,622 C749,616 745,611 746,605 C747,599 754,597 754,591 C754,585 742,575 748,576 C754,577 761,585 764,590 C767,595 766,601 771,602 C776,603 779,596 784,597 C789,598 792,601 796,604 C800,607 813,607 805,610 C797,613 788,615 782,620 C776,625 779,631 774,636 C769,641 785,645 778,647 C771,649 764,646 757,648 C750,650 748,656 741,657 C734,658 740,654 733,653 C726,652 723,656 716,652 C709,648 711,641 706,633 C701,625 698,622 694,613 C690,604 688,599 685,590 C682,581 681,576 679,567 C677,558 679,553 675,548 C671,543 668,542 665,537 C662,532 661,528 658,524 C655,520 651,518 649,513 C647,508 647,505 645,500 C643,495 639,492 639,486 C639,480 640,472 643,467 C646,462 650,461 652,456 C654,451 653,447 657,444 C661,441 666,442 669,439 C672,436 672,433 675,430 C678,427 682,425 683,421 C684,417 678,414 680,411 C682,408 687,408 689,405 C691,402 690,399 692,396 C694,393 697,392 698,389 C699,386 695,382 698,380 C701,378 704,379 707,377 C710,375 712,374 714,371 C716,368 717,367 719,364 C721,361 722,359 723,356 C724,353 724,352 726,349 C728,346 729,344 730,341 C731,338 728,336 729,333 C730,330 733,329 733,326 C733,323 732,321 731,319 C730,317 729,314 727,313 C725,312 723,316 721,315 C719,314 719,312 717,311 C715,310 714,309 712,309 C710,309 708,307 707,309 C706,311 709,313 708,316 C707,319 705,320 703,323 C701,326 700,328 697,330 C694,332 692,333 689,334 C686,335 683,333 680,336 C677,339 678,343 675,346 C672,349 670,350 667,353 C664,356 662,357 659,360 C656,363 654,366 651,368 C648,370 645,371 642,372 C639,373 637,373 634,374 C631,375 629,376 626,376 C623,376 619,377 618,374 C617,371 620,369 621,366 C622,363 621,361 623,358 C625,355 627,354 629,351 C631,348 632,346 634,343 C636,340 637,338 639,335 C641,332 644,328 644,325 C644,322 641,320 641,317 C641,314 640,312 641,309 C642,306 643,305 644,302 C645,299 650,291 648,289 C646,287 640,289 638,287 C636,285 637,283 635,281 C633,279 630,278 628,276 C626,274 625,273 623,271 C621,269 620,268 618,266 C616,264 615,263 613,261 C611,259 609,258 607,256 C605,254 604,253 602,251 C600,249 598,247 596,245 C594,243 594,281 594,281 Z"/>

        <!-- Australia -->
        <path d="M948,495 C948,495 950,496 952,498 C954,500 955,501 957,503 C959,505 960,507 962,509 C964,511 966,512 967,514 C968,516 967,518 968,520 C969,522 970,523 970,526 C970,529 969,531 969,534 C969,537 969,538 969,541 C969,544 969,546 969,549 C969,552 970,553 968,555 C966,557 963,557 961,559 C959,561 958,562 956,564 C954,566 952,567 951,569 C950,571 951,574 949,575 C947,576 944,575 942,576 C940,577 940,578 938,579 C936,580 929,580 931,578 C933,576 941,576 943,574 C945,572 944,570 946,568 C948,566 951,566 953,564 C955,562 956,560 957,558 C958,556 957,554 958,552 C959,550 962,549 960,548 C958,547 956,548 954,547 C952,546 952,544 949,544 C946,544 943,553 941,550 C939,547 941,542 942,539 C943,536 947,535 947,532 C947,529 943,528 942,525 C941,522 940,521 939,518 C938,515 937,512 936,509 C935,506 933,504 934,501 C935,498 938,497 940,494 C942,491 942,489 944,486 C946,483 947,477 950,477 C953,477 955,483 957,485 C959,487 963,492 960,493 C957,494 954,490 951,492 C948,494 947,494 948,495 Z"/>
    </g>
</svg>